<svg width="108" height="113" viewBox="0 0 108 113" fill="none" xmlns="http://www.w3.org/2000/svg">
<path fill-rule="evenodd" clip-rule="evenodd" d="M50.0001 0.5H78.5001C78.5001 0.5 73.0001 20.5 55.5001 56.5C52.7316 62.1952 49.4625 67.4899 45.9206 72.3684C54.5487 72.3381 62.4477 71.7817 69.9373 70.5575C67.4815 50.819 70.6153 39 70.6153 39C73.922 49.8723 77.3536 59.5135 80.9854 68.1807C89.8677 65.782 98.3675 62.2451 107.096 57.2991L105.5 77C105.5 77 100.9 80.6292 87.34 81.9715C92.8712 92.8708 98.8955 102.087 105.631 110.363H77.5001C77.5001 110.363 74.9293 100.47 71.7975 82.3768C69.6566 82.3032 67.3927 82.1801 65 82C56.6206 81.3692 48.4127 80.1996 40.8889 78.8262C22.6836 100.669 0.500061 112.5 0.500061 112.5C13.4275 101.891 23.3345 89.5659 30.773 76.7865C15.5411 73.4301 4.99998 69.8404 4.99998 69.8404C15.3746 70.905 24.7547 71.6898 33.3901 72.0841C47.2957 45.93 51.2885 18.538 50.0001 0.5Z" fill="white"/>
</svg>
